<svg width="31" height="35" viewBox="0 0 31 35" fill="none" xmlns="http://www.w3.org/2000/svg">
<path d="M30.7617 25.7031H22.5586V29.8047H30.7617V25.7031Z" fill="#27282B"/>
<path d="M22.5586 33.9746C22.5586 34.5409 23.0177 35 23.584 35H29.7363C30.3026 35 30.7617 34.5409 30.7617 33.9746V31.8555H22.5586V33.9746Z" fill="#27282B"/>
<path d="M14.3397 15.4623C13.4829 14.8191 12.4306 14.4238 11.2793 14.4238C8.45243 14.4238 6.15234 16.7239 6.15234 19.5508C6.15234 22.3776 8.45243 24.6777 11.2793 24.6777C12.4306 24.6777 13.4829 24.2825 14.3397 23.6392C13.0834 22.6864 12.3047 21.1827 12.3047 19.5508C12.3047 17.919 13.0834 16.4151 14.3397 15.4623Z" fill="#27282B"/>
<path d="M11.2793 8.27148C14.6799 8.27148 17.8202 9.75953 19.9751 12.373H22.5586V1.02539C22.5586 0.458623 22.1 0 21.5332 0H1.02539C0.458623 0 0 0.458623 0 1.02539V12.373H2.58351C4.7384 9.75953 7.87869 8.27148 11.2793 8.27148ZM17.4316 4.16992C17.9979 4.16992 18.457 4.62895 18.457 5.19531C18.457 5.7616 17.9979 6.2207 17.4316 6.2207C16.8653 6.2207 16.4062 5.7616 16.4062 5.19531C16.4062 4.62895 16.8653 4.16992 17.4316 4.16992ZM13.3301 4.16992C13.8964 4.16992 14.3555 4.62895 14.3555 5.19531C14.3555 5.7616 13.8964 6.2207 13.3301 6.2207C12.7638 6.2207 12.3047 5.7616 12.3047 5.19531C12.3047 4.62895 12.7638 4.16992 13.3301 4.16992ZM5.12695 4.16992H9.22851C9.79528 4.16992 10.2539 4.62854 10.2539 5.19531C10.2539 5.76208 9.79528 6.2207 9.22851 6.2207H5.12695C4.56018 6.2207 4.10156 5.76208 4.10156 5.19531C4.10156 4.62854 4.56018 4.16992 5.12695 4.16992Z" fill="#27282B"/>
<path d="M14.3555 19.5508C14.3555 20.5833 14.8864 21.5131 15.7131 22.0773C16.1418 21.3283 16.4062 20.4736 16.4062 19.5508C16.4062 18.6279 16.1418 17.7732 15.7131 17.0242C14.8864 17.5885 14.3555 18.5183 14.3555 19.5508Z" fill="#27282B"/>
<path d="M22.5586 14.4238H19.4774C19.155 14.4238 18.8516 14.2726 18.6583 14.0152C16.8929 11.6681 14.2032 10.3223 11.2793 10.3223C8.35536 10.3223 5.66569 11.6681 3.90031 14.0152C3.70706 14.2726 3.40361 14.4238 3.08116 14.4238H0V29.8047C0 30.3715 0.458623 30.8301 1.02539 30.8301H20.5078C20.5078 27.2444 20.5078 24.7145 20.5078 21.6016C20.5078 20.2665 21.3676 19.139 22.5586 18.7143V14.4238ZM11.2793 26.7285C7.3219 26.7285 4.10156 23.5082 4.10156 19.5508C4.10156 15.5934 7.3219 12.373 11.2793 12.373C15.2399 12.373 18.457 15.6937 18.457 19.5508C18.457 23.5082 15.2367 26.7285 11.2793 26.7285Z" fill="#27282B"/>
<path d="M29.7363 20.5762H23.584C23.0177 20.5762 22.5586 21.0352 22.5586 21.6016V23.6523H30.7617V21.6016C30.7617 21.0352 30.3026 20.5762 29.7363 20.5762Z" fill="#27282B"/>
</svg>
